<svg xmlns="http://www.w3.org/2000/svg" viewBox="0 0 689 224">
    <g
        transform="translate(0.000000,224.000000) scale(0.100000,-0.100000)"
        class="bott-logo"
        stroke="none"
    >
        <path
                d="M520 1090 l0 -530 80 0 80 0 0 455 0 456 339 -3 c325 -3 341 -4 367
          -24 51 -38 69 -71 69 -129 0 -58 -18 -91 -69 -129 -26 -20 -42 -21 -332 -24
          l-304 -3 0 -74 0 -74 379 -3 c365 -3 381 -4 407 -24 50 -37 69 -72 69 -124 0
          -52 -19 -87 -69 -124 -26 -20 -42 -21 -407 -24 l-379 -3 0 -74 0 -75 385 0
          c362 0 387 1 439 20 112 42 190 158 190 280 0 119 -68 221 -192 286 -1 0 8 23
          20 50 16 36 22 68 22 121 -1 91 -34 163 -105 227 -84 76 -85 76 -566 76 l-423
          0 0 -530z"
        />
        <path
                d="M2218 1601 c-83 -27 -138 -63 -199 -129 -96 -103 -139 -222 -139
          -382 0 -164 42 -279 140 -384 64 -68 125 -106 213 -131 48 -14 99 -16 330 -13
          l273 3 78 38 c182 91 280 261 280 487 0 226 -98 397 -280 487 l-78 38 -280 2
          c-251 2 -287 1 -338 -16z m580 -144 c97 -26 170 -96 214 -207 31 -79 31 -241
          0 -320 -45 -115 -126 -189 -228 -210 -33 -7 -138 -10 -276 -8 -208 3 -226 5
          -273 26 -179 82 -254 334 -160 540 42 92 105 148 200 178 57 18 453 19 523 1z"
        />
        <path
                d="M3230 1545 l0 -75 270 0 270 0 0 -455 0 -455 75 0 75 0 0 455 0 455 265 0 265 0 0 75 0 75 -610 0 -610 0 0 -75z"
        />
        <path
                d="M5250 1545 l0 -75 265 0 265 0 0 -455 0 -455 80 0 80 0 0 455 0 455 265 0 265 0 0 75 0 75 -610 0 -610 0 0 -75z"
        />
        <path
                d="M4440 1085 l0 -75 415 0 415 0 0 75 0 75 -415 0 -415 0 0 -75z"
        />
    </g>
</svg>